<?xml version="1.0" encoding="iso-8859-1"?>
<!-- Generator: Adobe Illustrator 16.0.0, SVG Export Plug-In . SVG Version: 6.00 Build 0)  -->
<!DOCTYPE svg PUBLIC "-//W3C//DTD SVG 1.1//EN" "http://www.w3.org/Graphics/SVG/1.1/DTD/svg11.dtd">
<svg version="1.1" id="Capa_1" xmlns="http://www.w3.org/2000/svg" xmlns:xlink="http://www.w3.org/1999/xlink" x="0px" y="0px"
	 width="969.25px" height="969.25px" viewBox="0 0 969.25 969.25" style="enable-background:new 0 0 969.25 969.25;"
	 xml:space="preserve">
<g>
	<path d="M120.3,701.5c37.7,37.699,81.7,67.301,130.6,88c50.7,21.4,104.5,32.301,160,32.301s109.3-10.9,160-32.301
		c23.1-9.801,45.1-21.6,65.8-35.199L834.1,951.699c23.4,23.4,61.4,23.4,84.9,0L951.7,919c23.399-23.4,23.399-61.4,0-84.9
		l-197.4-197.4C768,616,779.7,594,789.5,570.9c21.4-50.701,32.3-104.5,32.3-160s-10.899-109.3-32.3-160
		c-20.7-48.9-50.3-92.9-88-130.6c-37.7-37.7-81.7-67.3-130.6-88C520.2,10.9,466.4,0,410.9,0S301.6,10.9,250.9,32.3
		C202,53,158,82.6,120.3,120.3C82.6,158,53,202,32.3,250.9C10.9,301.6,0,355.4,0,410.9s10.9,109.299,32.3,160
		C52.9,619.801,82.6,663.801,120.3,701.5z M598.5,488.1H223.2c-41.4,0-75-33.6-75-75c0-41.4,33.6-75,75-75h375.3
		c41.4,0,75,33.6,75,75C673.5,454.5,640,488.1,598.5,488.1z"/>
</g>
<g>
</g>
<g>
</g>
<g>
</g>
<g>
</g>
<g>
</g>
<g>
</g>
<g>
</g>
<g>
</g>
<g>
</g>
<g>
</g>
<g>
</g>
<g>
</g>
<g>
</g>
<g>
</g>
<g>
</g>
</svg>
